<svg data-v-423bf9ae="" xmlns="http://www.w3.org/2000/svg" viewBox="0 0 640 107" class="iconLeftSlogan"><!----><!----><!----><g data-v-423bf9ae="" id="e273b7cd-c491-4a5d-bdc7-527ad09522c9" fill="white" transform="matrix(6.085192321084519,0,0,6.085192321084519,103.2908539090397,-17.89046624902314)"><path d="M7.62 12.78L7.62 12.78L7.62 12.78Q7.63 12.78 7.63 12.79L7.63 12.79L7.63 12.79Q7.63 12.80 7.62 12.80L7.62 12.80L7.05 12.80L7.05 12.80Q6.65 12.80 6.36 12.70L6.36 12.70L6.36 12.70Q6.06 12.60 5.86 12.43L5.86 12.43L5.86 12.43Q5.65 12.27 5.53 12.07L5.53 12.07L5.53 12.07Q5.41 11.87 5.35 11.67L5.35 11.67L4.56 9.02L1.71 9.02L0.60 12.46L0.60 12.46Q0.53 12.67 0.44 12.74L0.44 12.74L0.44 12.74Q0.36 12.80 0.16 12.80L0.16 12.80L-0.16 12.80L-0.16 12.80Q-0.17 12.80-0.17 12.79L-0.17 12.79L-0.17 12.79Q-0.17 12.78-0.16 12.78L-0.16 12.78L-0.16 12.78Q0.02 12.78 0.10 12.66L0.10 12.66L0.10 12.66Q0.17 12.54 0.23 12.37L0.23 12.37L2.97 3.77L2.97 3.77Q3.06 3.48 3.24 3.31L3.24 3.31L3.24 3.31Q3.41 3.14 3.60 3.06L3.60 3.06L3.60 3.06Q3.78 2.98 3.94 2.96L3.94 2.96L3.94 2.96Q4.10 2.95 4.17 2.95L4.17 2.95L7.11 12.18L7.11 12.18Q7.14 12.28 7.18 12.39L7.18 12.39L7.18 12.39Q7.21 12.50 7.27 12.58L7.27 12.58L7.27 12.58Q7.33 12.67 7.41 12.72L7.41 12.72L7.41 12.72Q7.49 12.78 7.62 12.78ZM3.20 4.30L1.82 8.67L4.46 8.67L3.20 4.30ZM9.64 2.94L9.64 2.94L9.64 10.94L9.64 10.94Q9.64 11.22 9.64 11.55L9.64 11.55L9.64 11.55Q9.64 11.87 9.72 12.14L9.72 12.14L9.72 12.14Q9.80 12.41 9.98 12.58L9.98 12.58L9.98 12.58Q10.17 12.76 10.54 12.76L10.54 12.76L10.54 12.76Q10.56 12.76 10.56 12.78L10.56 12.78L10.56 12.78Q10.56 12.80 10.54 12.80L10.54 12.80L9.62 12.80L9.62 12.80Q9.08 12.80 8.78 12.68L8.78 12.68L8.78 12.68Q8.48 12.56 8.32 12.36L8.32 12.36L8.32 12.36Q8.17 12.15 8.13 11.87L8.13 11.87L8.13 11.87Q8.09 11.59 8.09 11.27L8.09 11.27L8.09 4.57L8.09 4.57Q8.09 4.12 8.18 3.80L8.18 3.80L8.18 3.80Q8.26 3.49 8.44 3.29L8.44 3.29L8.44 3.29Q8.62 3.10 8.91 3.02L8.91 3.02L8.91 3.02Q9.21 2.94 9.64 2.94ZM13.13 2.94L13.13 2.94L13.13 10.94L13.13 10.94Q13.13 11.22 13.13 11.55L13.13 11.55L13.13 11.55Q13.13 11.87 13.21 12.14L13.21 12.14L13.21 12.14Q13.29 12.41 13.48 12.58L13.48 12.58L13.48 12.58Q13.67 12.76 14.03 12.76L14.03 12.76L14.03 12.76Q14.05 12.76 14.05 12.78L14.05 12.78L14.05 12.78Q14.05 12.80 14.03 12.80L14.03 12.80L13.11 12.80L13.11 12.80Q12.58 12.80 12.27 12.68L12.27 12.68L12.27 12.68Q11.97 12.56 11.82 12.36L11.82 12.36L11.82 12.36Q11.66 12.15 11.62 11.87L11.62 11.87L11.62 11.87Q11.59 11.59 11.59 11.27L11.59 11.27L11.59 4.57L11.59 4.57Q11.59 4.12 11.67 3.80L11.67 3.80L11.67 3.80Q11.75 3.49 11.93 3.29L11.93 3.29L11.93 3.29Q12.11 3.10 12.41 3.02L12.41 3.02L12.41 3.02Q12.70 2.94 13.13 2.94ZM22.01 12.78L22.01 12.78L22.01 12.78Q22.03 12.78 22.03 12.79L22.03 12.79L22.03 12.79Q22.03 12.80 22.01 12.80L22.01 12.80L21.44 12.80L21.44 12.80Q21.05 12.80 20.75 12.70L20.75 12.70L20.75 12.70Q20.46 12.60 20.25 12.43L20.25 12.43L20.25 12.43Q20.05 12.27 19.93 12.07L19.93 12.07L19.93 12.07Q19.80 11.87 19.74 11.67L19.74 11.67L18.96 9.02L16.11 9.02L15.00 12.46L15.00 12.46Q14.92 12.67 14.84 12.74L14.84 12.74L14.84 12.74Q14.75 12.80 14.56 12.80L14.56 12.80L14.24 12.80L14.24 12.80Q14.23 12.80 14.23 12.79L14.23 12.79L14.23 12.79Q14.23 12.78 14.24 12.78L14.24 12.78L14.24 12.78Q14.42 12.78 14.49 12.66L14.49 12.66L14.49 12.66Q14.57 12.54 14.63 12.37L14.63 12.37L17.36 3.77L17.36 3.77Q17.46 3.48 17.63 3.31L17.63 3.31L17.63 3.31Q17.81 3.14 17.99 3.06L17.99 3.06L17.99 3.06Q18.18 2.98 18.34 2.96L18.34 2.96L18.34 2.96Q18.50 2.95 18.57 2.95L18.57 2.95L21.51 12.18L21.51 12.18Q21.54 12.28 21.57 12.39L21.57 12.39L21.57 12.39Q21.61 12.50 21.67 12.58L21.67 12.58L21.67 12.58Q21.72 12.67 21.81 12.72L21.81 12.72L21.81 12.72Q21.89 12.78 22.01 12.78ZM17.60 4.30L16.21 8.67L18.85 8.67L17.60 4.30ZM24.04 2.95L24.04 2.95L24.04 5.27L26.62 5.27L26.62 5.27Q26.93 5.27 27.21 5.39L27.21 5.39L27.21 5.39Q27.48 5.51 27.69 5.71L27.69 5.71L27.69 5.71Q27.89 5.92 28.01 6.20L28.01 6.20L28.01 6.20Q28.13 6.47 28.13 6.79L28.13 6.79L28.13 11.29L28.13 11.29Q28.13 11.60 28.01 11.88L28.01 11.88L28.01 11.88Q27.89 12.15 27.69 12.36L27.69 12.36L27.69 12.36Q27.48 12.56 27.21 12.68L27.21 12.68L27.21 12.68Q26.93 12.80 26.62 12.80L26.62 12.80L22.49 12.80L22.49 4.59L22.49 4.59Q22.49 4.12 22.57 3.81L22.57 3.81L22.57 3.81Q22.65 3.49 22.84 3.30L22.84 3.30L22.84 3.30Q23.02 3.11 23.32 3.03L23.32 3.03L23.32 3.03Q23.61 2.95 24.04 2.95ZM25.05 5.61L24.04 5.61L24.04 12.47L25.05 12.47L25.05 12.47Q25.48 12.47 25.78 12.39L25.78 12.39L25.78 12.39Q26.08 12.31 26.27 12.13L26.27 12.13L26.27 12.13Q26.46 11.95 26.54 11.66L26.54 11.66L26.54 11.66Q26.62 11.36 26.62 10.94L26.62 10.94L26.62 7.12L26.62 7.12Q26.62 6.70 26.54 6.41L26.54 6.41L26.54 6.41Q26.46 6.12 26.27 5.94L26.27 5.94L26.27 5.94Q26.08 5.76 25.78 5.69L25.78 5.69L25.78 5.69Q25.48 5.61 25.05 5.61L25.05 5.61ZM31.53 5.27L33.82 5.27L33.82 5.27Q34.15 5.27 34.45 5.37L34.45 5.37L34.45 5.37Q34.75 5.48 34.98 5.67L34.98 5.67L34.98 5.67Q35.21 5.87 35.34 6.15L35.34 6.15L35.34 6.15Q35.48 6.44 35.48 6.81L35.48 6.81L35.48 11.27L35.48 11.27Q35.48 11.64 35.34 11.93L35.34 11.93L35.34 11.93Q35.21 12.21 34.98 12.40L34.98 12.40L34.98 12.40Q34.75 12.60 34.45 12.70L34.45 12.70L34.45 12.70Q34.15 12.80 33.82 12.80L33.82 12.80L31.53 12.80L31.53 12.80Q31.20 12.80 30.90 12.70L30.90 12.70L30.90 12.70Q30.60 12.60 30.37 12.40L30.37 12.40L30.37 12.40Q30.14 12.21 30.00 11.93L30.00 11.93L30.00 11.93Q29.86 11.64 29.86 11.27L29.86 11.27L29.86 6.81L29.86 6.81Q29.86 6.44 30.00 6.15L30.00 6.15L30.00 6.15Q30.14 5.87 30.37 5.67L30.37 5.67L30.37 5.67Q30.60 5.48 30.90 5.37L30.90 5.37L30.90 5.37Q31.20 5.27 31.53 5.27L31.53 5.27ZM31.38 7.13L31.38 10.94L31.38 10.94Q31.38 11.33 31.45 11.62L31.45 11.62L31.45 11.62Q31.51 11.91 31.67 12.09L31.67 12.09L31.67 12.09Q31.82 12.28 32.07 12.37L32.07 12.37L32.07 12.37Q32.31 12.46 32.67 12.46L32.67 12.46L32.67 12.46Q33.02 12.46 33.27 12.37L33.27 12.37L33.27 12.37Q33.52 12.28 33.68 12.09L33.68 12.09L33.68 12.09Q33.83 11.91 33.90 11.62L33.90 11.62L33.90 11.62Q33.97 11.33 33.97 10.94L33.97 10.94L33.97 7.13L33.97 7.13Q33.97 6.74 33.90 6.45L33.90 6.45L33.90 6.45Q33.83 6.17 33.68 5.98L33.68 5.98L33.68 5.98Q33.52 5.80 33.27 5.71L33.27 5.71L33.27 5.71Q33.02 5.62 32.67 5.62L32.67 5.62L32.67 5.62Q32.31 5.62 32.07 5.71L32.07 5.71L32.07 5.71Q31.82 5.80 31.67 5.98L31.67 5.98L31.67 5.98Q31.51 6.17 31.45 6.45L31.45 6.45L31.45 6.45Q31.38 6.74 31.38 7.13L31.38 7.13ZM41.17 12.80L38.73 12.80L38.73 12.80Q38.25 12.80 37.96 12.67L37.96 12.67L37.96 12.67Q37.66 12.54 37.49 12.30L37.49 12.30L37.49 12.30Q37.32 12.06 37.27 11.72L37.27 11.72L37.27 11.72Q37.21 11.39 37.21 10.98L37.21 10.98L37.21 6.74L37.21 6.74Q37.21 6.30 37.28 5.99L37.28 5.99L37.28 5.99Q37.35 5.69 37.53 5.50L37.53 5.50L37.53 5.50Q37.71 5.31 38.01 5.23L38.01 5.23L38.01 5.23Q38.31 5.15 38.76 5.15L38.76 5.15L38.76 11.27L38.76 11.27Q38.76 11.58 38.84 11.81L38.84 11.81L38.84 11.81Q38.92 12.03 39.10 12.18L39.10 12.18L39.10 12.18Q39.29 12.33 39.58 12.39L39.58 12.39L39.58 12.39Q39.87 12.46 40.30 12.46L40.30 12.46L40.91 12.46L40.91 12.46Q41.68 12.46 42.07 12.19L42.07 12.19L42.07 12.19Q42.46 11.92 42.46 11.30L42.46 11.30L42.46 5.96L42.46 5.96Q42.46 5.73 42.48 5.57L42.48 5.57L42.48 5.57Q42.49 5.41 42.52 5.32L42.52 5.32L42.52 5.32Q42.56 5.23 42.64 5.19L42.64 5.19L42.64 5.19Q42.72 5.15 42.85 5.15L42.85 5.15L42.85 11.30L42.85 11.30Q42.85 11.59 42.78 11.86L42.78 11.86L42.78 11.86Q42.70 12.13 42.51 12.34L42.51 12.34L42.51 12.34Q42.31 12.55 41.99 12.68L41.99 12.68L41.99 12.68Q41.67 12.80 41.17 12.80L41.17 12.80ZM46.26 5.61L46.26 10.96L46.26 10.96Q46.26 11.12 46.26 11.32L46.26 11.32L46.26 11.32Q46.25 11.52 46.27 11.72L46.27 11.72L46.27 11.72Q46.28 11.92 46.32 12.11L46.32 12.11L46.32 12.11Q46.36 12.30 46.45 12.44L46.45 12.44L46.45 12.44Q46.55 12.59 46.70 12.68L46.70 12.68L46.70 12.68Q46.85 12.77 47.07 12.77L47.07 12.77L47.07 12.77Q47.10 12.77 47.10 12.79L47.10 12.79L47.10 12.79Q47.10 12.80 47.07 12.80L47.07 12.80L46.26 12.80L46.26 12.80Q45.73 12.80 45.42 12.67L45.42 12.67L45.42 12.67Q45.11 12.54 44.95 12.30L44.95 12.30L44.95 12.30Q44.80 12.07 44.75 11.72L44.75 11.72L44.75 11.72Q44.71 11.38 44.71 10.96L44.71 10.96L44.71 5.61L43.90 5.61L43.90 5.27L44.71 5.27L44.71 4.59L44.71 4.59Q44.71 4.13 44.79 3.81L44.79 3.81L44.79 3.81Q44.87 3.50 45.06 3.31L45.06 3.31L45.06 3.31Q45.24 3.12 45.53 3.04L45.53 3.04L45.53 3.04Q45.83 2.95 46.26 2.95L46.26 2.95L46.26 5.27L47.74 5.27L47.74 5.61L46.26 5.61ZM50.31 3.08L53.63 3.08L53.63 3.08Q53.94 3.08 54.22 3.20L54.22 3.20L54.22 3.20Q54.50 3.32 54.70 3.53L54.70 3.53L54.70 3.53Q54.91 3.74 55.03 4.02L55.03 4.02L55.03 4.02Q55.15 4.29 55.15 4.61L55.15 4.61L55.15 5.91L54.76 5.91L54.76 5.91Q54.73 5.41 54.54 4.96L54.54 4.96L54.54 4.96Q54.35 4.50 54.03 4.17L54.03 4.17L54.03 4.17Q53.71 3.83 53.28 3.63L53.28 3.63L53.28 3.63Q52.84 3.42 52.32 3.42L52.32 3.42L51.86 3.42L51.86 3.42Q51.43 3.42 51.13 3.50L51.13 3.50L51.13 3.50Q50.83 3.58 50.65 3.75L50.65 3.75L50.65 3.75Q50.47 3.93 50.39 4.22L50.39 4.22L50.39 4.22Q50.31 4.51 50.31 4.94L50.31 4.94L50.31 10.94L50.31 10.94Q50.31 11.36 50.39 11.66L50.39 11.66L50.39 11.66Q50.47 11.95 50.65 12.13L50.65 12.13L50.65 12.13Q50.83 12.30 51.13 12.38L51.13 12.38L51.13 12.38Q51.43 12.46 51.86 12.46L51.86 12.46L52.32 12.46L52.32 12.46Q52.75 12.46 53.04 12.38L53.04 12.38L53.04 12.38Q53.34 12.30 53.53 12.13L53.53 12.13L53.53 12.13Q53.72 11.95 53.80 11.66L53.80 11.66L53.80 11.66Q53.88 11.36 53.88 10.94L53.88 10.94L53.88 8.69L52.55 8.69L52.55 8.35L54.58 8.35L54.58 8.35Q54.81 8.35 54.97 8.36L54.97 8.36L54.97 8.36Q55.13 8.37 55.22 8.44L55.22 8.44L55.22 8.44Q55.31 8.50 55.35 8.63L55.35 8.63L55.35 8.63Q55.38 8.76 55.38 9.01L55.38 9.01L55.38 11.27L55.38 11.27Q55.38 11.59 55.27 11.86L55.27 11.86L55.27 11.86Q55.15 12.14 54.94 12.35L54.94 12.35L54.94 12.35Q54.74 12.56 54.46 12.68L54.46 12.68L54.46 12.68Q54.18 12.80 53.87 12.80L53.87 12.80L50.31 12.80L50.31 12.80Q49.99 12.80 49.71 12.68L49.71 12.68L49.71 12.68Q49.44 12.56 49.23 12.35L49.23 12.35L49.23 12.35Q49.03 12.14 48.91 11.86L48.91 11.86L48.91 11.86Q48.79 11.59 48.79 11.27L48.79 11.27L48.79 4.61L48.79 4.61Q48.79 4.29 48.89 4.02L48.89 4.02L48.89 4.02Q48.99 3.74 49.19 3.53L49.19 3.53L49.19 3.53Q49.38 3.32 49.66 3.20L49.66 3.20L49.66 3.20Q49.94 3.08 50.31 3.08L50.31 3.08ZM58.26 7.79L60.87 7.79L60.87 7.14L60.87 7.14Q60.87 6.32 60.48 5.97L60.48 5.97L60.48 5.97Q60.09 5.63 59.27 5.63L59.27 5.63L59.27 5.63Q58.87 5.63 58.59 5.70L58.59 5.70L58.59 5.70Q58.30 5.78 58.13 5.96L58.13 5.96L58.13 5.96Q57.95 6.15 57.87 6.43L57.87 6.43L57.87 6.43Q57.79 6.72 57.79 7.14L57.79 7.14L57.79 7.30L57.39 7.30L57.39 6.18L57.39 6.18Q57.39 5.87 57.42 5.69L57.42 5.69L57.42 5.69Q57.44 5.51 57.52 5.42L57.52 5.42L57.52 5.42Q57.60 5.33 57.76 5.31L57.76 5.31L57.76 5.31Q57.92 5.28 58.21 5.28L58.21 5.28L60.87 5.28L60.87 5.28Q61.15 5.28 61.42 5.42L61.42 5.42L61.42 5.42Q61.69 5.55 61.90 5.77L61.90 5.77L61.90 5.77Q62.12 5.98 62.25 6.25L62.25 6.25L62.25 6.25Q62.38 6.53 62.38 6.81L62.38 6.81L62.38 11.27L62.38 11.27Q62.38 11.58 62.25 11.85L62.25 11.85L62.25 11.85Q62.13 12.12 61.92 12.33L61.92 12.33L61.92 12.33Q61.71 12.53 61.43 12.66L61.43 12.66L61.43 12.66Q61.16 12.78 60.87 12.80L60.87 12.80L58.26 12.80L58.26 12.80Q57.95 12.80 57.67 12.68L57.67 12.68L57.67 12.68Q57.40 12.56 57.20 12.36L57.20 12.36L57.20 12.36Q56.99 12.15 56.87 11.87L56.87 11.87L56.87 11.87Q56.75 11.59 56.75 11.27L56.75 11.27L56.75 9.31L56.75 9.31Q56.75 9.00 56.87 8.72L56.87 8.72L56.87 8.72Q56.99 8.44 57.20 8.23L57.20 8.23L57.20 8.23Q57.40 8.03 57.67 7.91L57.67 7.91L57.67 7.91Q57.95 7.79 58.26 7.79L58.26 7.79ZM60.87 10.94L60.87 8.13L59.82 8.13L59.82 8.13Q59.39 8.13 59.09 8.21L59.09 8.21L59.09 8.21Q58.80 8.29 58.61 8.46L58.61 8.46L58.61 8.46Q58.43 8.64 58.34 8.93L58.34 8.93L58.34 8.93Q58.26 9.22 58.26 9.64L58.26 9.64L58.26 10.94L58.26 10.94Q58.26 11.33 58.33 11.60L58.33 11.60L58.33 11.60Q58.40 11.87 58.55 12.06L58.55 12.06L58.55 12.06Q58.70 12.24 58.94 12.33L58.94 12.33L58.94 12.33Q59.19 12.43 59.53 12.46L59.53 12.46L59.53 12.46Q59.90 12.43 60.16 12.34L60.16 12.34L60.16 12.34Q60.41 12.25 60.57 12.07L60.57 12.07L60.57 12.07Q60.73 11.89 60.80 11.61L60.80 11.61L60.80 11.61Q60.87 11.33 60.87 10.94L60.87 10.94ZM72.31 5.27L72.31 5.27L72.31 5.27Q72.62 5.27 72.90 5.39L72.90 5.39L72.90 5.39Q73.18 5.51 73.39 5.72L73.39 5.72L73.39 5.72Q73.60 5.93 73.73 6.21L73.73 6.21L73.73 6.21Q73.86 6.49 73.86 6.80L73.86 6.80L73.86 11.20L73.86 11.20Q73.86 11.65 73.78 11.96L73.78 11.96L73.78 11.96Q73.71 12.26 73.54 12.45L73.54 12.45L73.54 12.45Q73.36 12.64 73.06 12.72L73.06 12.72L73.06 12.72Q72.76 12.80 72.31 12.80L72.31 12.80L72.31 7.13L72.31 7.13Q72.31 6.34 72.01 5.98L72.01 5.98L72.01 5.98Q71.70 5.62 71.04 5.62L71.04 5.62L69.77 5.62L69.77 11.20L69.77 11.20Q69.77 11.56 69.72 11.83L69.72 11.83L69.72 11.83Q69.67 12.09 69.57 12.28L69.57 12.28L69.57 12.28Q69.46 12.47 69.28 12.58L69.28 12.58L69.28 12.58Q69.10 12.70 68.83 12.76L68.83 12.76L68.83 12.76Q68.65 12.79 68.38 12.80L68.38 12.80L68.21 12.80L68.21 7.05L68.21 7.05Q68.20 6.31 67.89 5.96L67.89 5.96L67.89 5.96Q67.58 5.62 66.94 5.62L66.94 5.62L65.67 5.62L65.67 11.20L65.67 11.20Q65.67 11.65 65.59 11.96L65.59 11.96L65.59 11.96Q65.52 12.26 65.34 12.45L65.34 12.45L65.34 12.45Q65.16 12.64 64.86 12.72L64.86 12.72L64.86 12.72Q64.56 12.80 64.11 12.80L64.11 12.80L64.11 5.27L72.31 5.27ZM78.35 5.63L78.35 5.63L78.35 5.63Q77.64 5.63 77.35 5.98L77.35 5.98L77.35 5.98Q77.05 6.34 77.05 7.12L77.05 7.12L77.05 7.77L79.65 7.77L79.65 7.12L79.65 7.12Q79.65 6.73 79.58 6.45L79.58 6.45L79.58 6.45Q79.52 6.17 79.36 5.98L79.36 5.98L79.36 5.98Q79.21 5.80 78.96 5.71L78.96 5.71L78.96 5.71Q78.72 5.63 78.35 5.63ZM81.17 8.11L77.05 8.11L77.05 10.95L77.05 10.95Q77.05 11.38 77.14 11.67L77.14 11.67L77.14 11.67Q77.22 11.96 77.40 12.14L77.40 12.14L77.40 12.14Q77.58 12.32 77.88 12.40L77.88 12.40L77.88 12.40Q78.18 12.48 78.61 12.48L78.61 12.48L78.68 12.48L78.68 12.48Q79.11 12.48 79.41 12.40L79.41 12.40L79.41 12.40Q79.70 12.32 79.88 12.14L79.88 12.14L79.88 12.14Q80.07 11.96 80.15 11.67L80.15 11.67L80.15 11.67Q80.23 11.38 80.23 10.95L80.23 10.95L80.23 10.30L80.62 10.30L80.62 11.29L80.62 11.29Q80.62 11.51 80.57 11.78L80.57 11.78L80.57 11.78Q80.52 12.04 80.36 12.27L80.36 12.27L80.36 12.27Q80.21 12.50 79.91 12.65L79.91 12.65L79.91 12.65Q79.60 12.80 79.10 12.80L79.10 12.80L77.05 12.80L77.05 12.80Q76.78 12.80 76.51 12.67L76.51 12.67L76.51 12.67Q76.24 12.54 76.03 12.33L76.03 12.33L76.03 12.33Q75.81 12.11 75.68 11.84L75.68 11.84L75.68 11.84Q75.54 11.57 75.54 11.29L75.54 11.29L75.54 6.79L75.54 6.79Q75.54 6.49 75.67 6.22L75.67 6.22L75.67 6.22Q75.79 5.95 76.00 5.75L76.00 5.75L76.00 5.75Q76.21 5.54 76.48 5.42L76.48 5.42L76.48 5.42Q76.75 5.29 77.05 5.27L77.05 5.27L79.65 5.27L79.65 5.27Q79.97 5.27 80.24 5.39L80.24 5.39L80.24 5.39Q80.52 5.51 80.73 5.72L80.73 5.72L80.73 5.72Q80.93 5.93 81.05 6.20L81.05 6.20L81.05 6.20Q81.17 6.48 81.17 6.79L81.17 6.79L81.17 8.11ZM84.05 5.27L84.05 5.27L86.47 5.27L86.47 5.27Q86.98 5.27 87.26 5.42L87.26 5.42L87.26 5.42Q87.53 5.58 87.66 5.81L87.66 5.81L87.66 5.81Q87.79 6.04 87.82 6.30L87.82 6.30L87.82 6.30Q87.84 6.56 87.84 6.79L87.84 6.79L87.84 7.29L87.42 7.29L87.42 7.29Q87.37 6.92 87.22 6.62L87.22 6.62L87.22 6.62Q87.08 6.31 86.84 6.09L86.84 6.09L86.84 6.09Q86.60 5.87 86.29 5.74L86.29 5.74L86.29 5.74Q85.97 5.61 85.58 5.61L85.58 5.61L85.19 5.61L85.19 5.61Q84.77 5.61 84.49 5.68L84.49 5.68L84.49 5.68Q84.21 5.75 84.04 5.91L84.04 5.91L84.04 5.91Q83.87 6.06 83.80 6.32L83.80 6.32L83.80 6.32Q83.73 6.58 83.73 6.96L83.73 6.96L83.73 6.96Q83.73 7.25 83.89 7.46L83.89 7.46L83.89 7.46Q84.06 7.67 84.34 7.83L84.34 7.83L84.34 7.83Q84.62 7.99 84.98 8.11L84.98 8.11L84.98 8.11Q85.34 8.24 85.72 8.34L85.72 8.34L85.72 8.34Q86.10 8.44 86.47 8.54L86.47 8.54L86.47 8.54Q86.84 8.64 87.14 8.76L87.14 8.76L87.14 8.76Q87.36 8.84 87.55 8.98L87.55 8.98L87.55 8.98Q87.74 9.12 87.88 9.31L87.88 9.31L87.88 9.31Q88.01 9.50 88.09 9.72L88.09 9.72L88.09 9.72Q88.17 9.95 88.17 10.19L88.17 10.19L88.17 11.28L88.17 11.28Q88.17 11.59 88.05 11.87L88.05 11.87L88.05 11.87Q87.93 12.15 87.72 12.36L87.72 12.36L87.72 12.36Q87.51 12.56 87.23 12.68L87.23 12.68L87.23 12.68Q86.95 12.80 86.64 12.80L86.64 12.80L84.47 12.80L84.47 12.80Q83.96 12.80 83.59 12.71L83.59 12.71L83.59 12.71Q83.22 12.61 82.99 12.39L82.99 12.39L82.99 12.39Q82.76 12.17 82.65 11.82L82.65 11.82L82.65 11.82Q82.54 11.46 82.54 10.95L82.54 10.95L82.54 10.29L82.93 10.29L82.93 10.95L82.93 10.95Q82.93 11.38 83.01 11.67L83.01 11.67L83.01 11.67Q83.09 11.96 83.27 12.13L83.27 12.13L83.27 12.13Q83.45 12.31 83.75 12.39L83.75 12.39L83.75 12.39Q84.04 12.46 84.47 12.46L84.47 12.46L85.42 12.46L85.42 12.46Q85.85 12.46 86.15 12.41L86.15 12.41L86.15 12.41Q86.44 12.36 86.62 12.21L86.62 12.21L86.62 12.21Q86.80 12.06 86.88 11.80L86.88 11.80L86.88 11.80Q86.96 11.54 86.96 11.12L86.96 11.12L86.96 10.94L86.96 10.94Q86.96 10.60 86.77 10.39L86.77 10.39L86.77 10.39Q86.58 10.17 86.27 10.02L86.27 10.02L86.27 10.02Q85.96 9.88 85.56 9.78L85.56 9.78L85.56 9.78Q85.16 9.68 84.75 9.57L84.75 9.57L84.75 9.57Q84.33 9.45 83.94 9.31L83.94 9.31L83.94 9.31Q83.54 9.17 83.23 8.93L83.23 8.93L83.23 8.93Q82.92 8.70 82.73 8.35L82.73 8.35L82.73 8.35Q82.54 8.00 82.54 7.49L82.54 7.49L82.54 6.79L82.54 6.79Q82.54 6.47 82.66 6.20L82.66 6.20L82.66 6.20Q82.78 5.92 82.98 5.71L82.98 5.71L82.98 5.71Q83.19 5.51 83.46 5.39L83.46 5.39L83.46 5.39Q83.74 5.27 84.05 5.27Z"></path></g><!----><g data-v-423bf9ae="" id="e6c914e0-4294-474c-ada3-9cb55c22068e" transform="matrix(1.0868111504448785,0,0,1.0868111504448785,-13.255261890115804,-0.23894260335429607)" stroke="none" fill="white"><g clip-rule="evenodd"><path d="M12.983 10.59l17.018 88.223-5.872-59.049 29.021-1.892-.054-9.883L64.549 1 53.622 18.977z"></path><path d="M59.389 54.548l5.16-53.541-8.74 39.716-19.612 1.045 1.57 20.462-7.766 36.583 12.057-39.899z"></path><path d="M62.8 67.182l.549-10.453-15.979 3.755-.032 11.797-17.337 26.532 21.68-27.616zM65.711 62.394l14.841-4.731 1.509-12.532-15.899 2.095zM72.07 44.502l10.988-1.417 1.581-10.278-8.079-.373L64.549 1l8.43 30.967z"></path><path d="M87.413 31.294l1.256-9.506-9.544-2.694L64.549 1l14.483 22.437-.422 7z"></path></g></g><!----><g data-v-423bf9ae="" id="25f94da0-fbd6-421b-b5ff-780d5e5e9331" fill="white" transform="matrix(0.9497629781300657,0,0,0.9497629781300657,101.76250976590018,57.24568694987062)"><path d="M0.52 12.39C0.52 12.63 0.53 12.68 0.73 12.68C1.05 12.68 1.95 12.64 2.37 12.64C2.79 12.64 3.74 12.68 4.06 12.68C4.23 12.68 4.24 12.61 4.24 12.40C4.24 12.24 4.21 12.18 4.05 12.18L3.04 12.18C2.94 12.18 2.91 10.12 2.91 8.46C2.91 8.30 2.91 8.30 3.08 8.30L3.35 8.30C3.56 8.30 3.56 8.32 3.63 8.40L6.66 12.00C6.76 12.11 6.83 12.18 6.62 12.18L6.16 12.18C5.98 12.18 5.91 12.19 5.91 12.39C5.91 12.63 5.91 12.68 6.10 12.68C6.43 12.68 7.13 12.64 7.55 12.64C7.97 12.64 8.65 12.68 8.97 12.68C9.14 12.68 9.14 12.61 9.14 12.40C9.14 12.24 9.14 12.18 8.97 12.18L8.75 12.18C8.57 12.18 8.47 12.10 8.34 11.96L4.58 7.62C4.44 7.45 4.41 7.50 4.54 7.36C4.98 6.83 7.52 3.77 7.59 3.77L8.26 3.77C8.48 3.77 8.51 3.75 8.51 3.56C8.51 3.32 8.51 3.26 8.32 3.26C8.12 3.26 7.67 3.30 7.15 3.30C6.62 3.30 6.15 3.26 5.92 3.26C5.74 3.26 5.64 3.28 5.64 3.51C5.64 3.75 5.75 3.77 5.92 3.77L6.48 3.77C6.65 3.77 6.65 3.84 6.54 3.99C6.01 4.66 3.65 7.92 3.36 7.92L3.05 7.92C2.91 7.92 2.91 7.88 2.91 7.69L2.91 5.94C2.91 5.21 2.98 3.77 3.08 3.77L3.85 3.77C4.07 3.77 4.12 3.75 4.12 3.56C4.12 3.32 4.10 3.26 3.91 3.26C3.58 3.26 2.81 3.30 2.39 3.30C1.81 3.30 1.15 3.26 0.92 3.26C0.74 3.26 0.64 3.28 0.64 3.51C0.64 3.75 0.76 3.77 0.92 3.77L1.57 3.77C1.62 3.77 1.65 4.86 1.65 5.78L1.65 9.84C1.65 11.00 1.64 12.18 1.55 12.18L0.81 12.18C0.59 12.18 0.52 12.19 0.52 12.39ZM16.62 12.39C16.62 12.63 16.65 12.68 16.84 12.68C17.16 12.68 18.13 12.64 18.55 12.64C18.97 12.64 23.48 12.68 23.80 12.68C23.93 12.68 24.08 12.66 24.08 12.49C24.08 12.07 24.12 11.23 24.12 10.53C24.12 10.39 23.97 10.39 23.84 10.39C23.73 10.39 23.60 10.39 23.60 10.51C23.59 11.06 23.59 11.41 23.56 11.76C23.53 12.01 23.53 12.04 23.44 12.04C23.28 12.04 20.65 12.08 19.15 12.08C19.08 12.08 19.04 10.11 19.00 8.26C19.00 8.06 19.04 8.09 19.18 8.09L21.46 8.09C22.16 8.09 22.19 8.20 22.19 8.30L22.19 9.00C22.19 9.14 22.37 9.14 22.48 9.14C22.58 9.14 22.71 9.13 22.71 9.02C22.71 8.83 22.68 8.33 22.68 7.83C22.68 7.32 22.71 6.83 22.71 6.71C22.71 6.59 22.57 6.58 22.47 6.58C22.36 6.58 22.19 6.59 22.19 6.72L22.19 7.45C22.19 7.62 21.74 7.63 21.46 7.63L19.12 7.63C19.01 7.63 19.00 7.63 19.00 7.45C18.98 6.75 18.97 6.06 18.97 5.46C18.97 5.12 18.97 3.71 19.05 3.71C20.29 3.71 22.79 3.75 22.79 3.81C22.79 3.99 22.75 4.83 22.75 4.89C22.75 5.04 22.82 5.10 23.00 5.10C23.20 5.10 23.27 5.08 23.27 4.94C23.27 3.85 23.32 3.36 23.32 3.09C23.32 2.91 23.24 2.90 23.04 2.90C22.85 2.90 22.85 2.95 22.82 3.11C22.81 3.25 22.88 3.25 21.97 3.25C21.35 3.25 19.21 3.29 18.44 3.29C17.95 3.29 17.01 3.25 16.91 3.25C16.79 3.25 16.73 3.30 16.73 3.49C16.73 3.72 16.80 3.74 16.97 3.74L17.63 3.74C17.68 3.74 17.75 4.79 17.75 5.71C17.75 5.80 17.81 8.27 17.81 9.83L17.81 11.17C17.81 11.84 17.78 12.18 17.75 12.18L16.90 12.18C16.67 12.18 16.62 12.21 16.62 12.39ZM32.09 12.39C32.09 12.63 32.12 12.68 32.31 12.68C32.63 12.68 33.60 12.64 34.02 12.64C34.44 12.64 38.95 12.68 39.27 12.68C39.40 12.68 39.55 12.66 39.55 12.49C39.55 12.07 39.59 11.23 39.59 10.53C39.59 10.39 39.44 10.39 39.31 10.39C39.20 10.39 39.07 10.39 39.07 10.51C39.06 11.06 39.06 11.41 39.03 11.76C39.00 12.01 39.00 12.04 38.91 12.04C38.75 12.04 36.12 12.08 34.62 12.08C34.55 12.08 34.51 10.11 34.47 8.26C34.47 8.06 34.51 8.09 34.65 8.09L36.93 8.09C37.63 8.09 37.66 8.20 37.66 8.30L37.66 9.00C37.66 9.14 37.84 9.14 37.95 9.14C38.05 9.14 38.18 9.13 38.18 9.02C38.18 8.83 38.15 8.33 38.15 7.83C38.15 7.32 38.18 6.83 38.18 6.71C38.18 6.59 38.04 6.58 37.94 6.58C37.83 6.58 37.66 6.59 37.66 6.72L37.66 7.45C37.66 7.62 37.21 7.63 36.93 7.63L34.59 7.63C34.48 7.63 34.47 7.63 34.47 7.45C34.45 6.75 34.44 6.06 34.44 5.46C34.44 5.12 34.44 3.71 34.52 3.71C35.76 3.71 38.26 3.75 38.26 3.81C38.26 3.99 38.22 4.83 38.22 4.89C38.22 5.04 38.29 5.10 38.47 5.10C38.67 5.10 38.74 5.08 38.74 4.94C38.74 3.85 38.79 3.36 38.79 3.09C38.79 2.91 38.71 2.90 38.51 2.90C38.32 2.90 38.32 2.95 38.29 3.11C38.28 3.25 38.35 3.25 37.44 3.25C36.82 3.25 34.68 3.29 33.91 3.29C33.42 3.29 32.48 3.25 32.38 3.25C32.26 3.25 32.20 3.30 32.20 3.49C32.20 3.72 32.27 3.74 32.44 3.74L33.10 3.74C33.15 3.74 33.22 4.79 33.22 5.71C33.22 5.80 33.28 8.27 33.28 9.83L33.28 11.17C33.28 11.84 33.25 12.18 33.22 12.18L32.37 12.18C32.14 12.18 32.09 12.21 32.09 12.39ZM47.56 3.51C47.56 3.75 47.60 3.79 47.81 3.79L48.73 3.77C48.79 3.77 48.79 4.47 48.79 5.24L48.79 5.96C48.79 7.70 48.78 12.18 48.66 12.18L47.99 12.18C47.77 12.18 47.70 12.19 47.70 12.39C47.70 12.63 47.71 12.68 47.91 12.68C48.03 12.68 49.01 12.64 49.43 12.64C49.85 12.64 50.72 12.68 51.04 12.68C51.21 12.68 51.24 12.61 51.24 12.40C51.24 12.24 51.21 12.18 51.04 12.18L50.05 12.18C50.01 12.18 49.99 10.60 49.99 9.58L49.99 8.65C49.99 8.57 49.99 8.54 50.09 8.54C50.48 8.54 50.81 8.58 51.31 8.58C53.30 8.58 54.70 7.83 54.70 6.01C54.70 4.09 53.21 3.22 51.30 3.22C50.97 3.22 49.88 3.29 49.46 3.29C49.22 3.29 48.03 3.26 47.81 3.26C47.63 3.26 47.56 3.28 47.56 3.51ZM50.01 8.05L50.01 4.40C50.01 4.05 50.02 3.70 50.06 3.68C50.19 3.67 50.36 3.67 50.50 3.67C52.15 3.67 53.41 4.47 53.41 5.80C53.41 7.57 52.08 8.19 50.50 8.19C50.25 8.19 50.01 8.16 50.01 8.05ZM71.99 5.01C71.99 5.17 72.17 5.17 72.30 5.17C72.45 5.17 72.49 5.15 72.51 4.97L72.62 3.89C72.63 3.81 73.18 3.75 73.93 3.75L75.92 3.75C75.98 3.75 76.01 4.35 76.01 4.97C76.01 6.43 75.95 12.18 75.82 12.18L74.96 12.18C74.73 12.18 74.69 12.19 74.69 12.39C74.69 12.63 74.70 12.68 74.90 12.68C75.22 12.68 76.20 12.64 76.62 12.64C77.04 12.64 77.98 12.68 78.30 12.68C78.47 12.68 78.50 12.61 78.50 12.40C78.50 12.24 78.47 12.18 78.30 12.18L77.31 12.18C77.28 12.18 77.28 11.76 77.28 11.31C77.28 9.56 77.36 5.96 77.36 5.92C77.38 5.18 77.38 3.75 77.48 3.75L79.09 3.75C79.80 3.75 80.63 3.78 80.63 3.85C80.63 3.99 80.58 4.90 80.58 4.97C80.58 5.12 80.65 5.17 80.84 5.17C81.03 5.17 81.10 5.17 81.10 5.03C81.10 3.93 81.16 3.40 81.16 3.14C81.16 2.94 81.07 2.94 80.88 2.94C80.72 2.94 80.67 2.98 80.65 3.16C80.65 3.23 80.01 3.28 79.17 3.28L74.17 3.28C73.51 3.28 72.70 3.28 72.70 3.21L72.70 3.07C72.70 2.94 72.58 2.94 72.48 2.94C72.25 2.94 72.23 3.00 72.21 3.19C72.16 3.89 71.99 4.97 71.99 5.01ZM88.91 3.51C88.91 3.72 88.98 3.79 89.18 3.79L89.99 3.77C90.09 3.77 90.13 6.61 90.13 8.55L90.13 10.42C90.13 11.30 90.12 12.18 90.08 12.18L89.47 12.18C89.25 12.18 89.18 12.19 89.18 12.39C89.18 12.63 89.22 12.68 89.42 12.68C89.54 12.68 90.37 12.64 90.79 12.64C91.21 12.64 91.98 12.68 92.30 12.68C92.47 12.68 92.50 12.61 92.50 12.40C92.50 12.24 92.47 12.18 92.30 12.18L91.49 12.18C91.42 12.18 91.34 9.18 91.34 8.37C91.34 8.30 91.34 8.26 91.45 8.26C91.84 8.26 92.44 8.27 92.74 8.27C94.98 8.32 95.12 10.00 95.12 11.68L95.12 12.49C95.12 12.61 95.17 12.64 95.27 12.64C95.27 12.64 96.71 12.68 97.19 12.68C97.36 12.68 97.41 12.64 97.41 12.53C97.41 12.24 97.36 12.18 97.20 12.18L96.56 12.18C96.46 12.18 96.43 12.14 96.40 11.31C96.32 8.99 94.95 8.34 94.04 8.05C93.90 8.01 93.93 8.01 94.04 7.95C94.63 7.69 95.94 6.94 95.94 5.63C95.94 3.63 94.25 3.21 92.85 3.21C92.53 3.21 91.24 3.29 90.82 3.29C90.40 3.29 89.42 3.26 89.19 3.26C89.01 3.26 88.91 3.28 88.91 3.51ZM91.34 7.80L91.34 4.40C91.34 4.05 91.36 3.68 91.41 3.68C91.62 3.65 91.90 3.65 92.12 3.65C93.42 3.65 94.67 4.47 94.67 5.82C94.67 6.99 94.12 7.57 93.46 7.88C93.42 7.90 93.38 7.90 93.31 7.90C92.83 7.88 92.12 7.88 91.52 7.87C91.35 7.87 91.34 7.85 91.34 7.80ZM104.75 12.39C104.75 12.63 104.75 12.68 104.94 12.68C105.11 12.68 105.43 12.64 106.01 12.64C106.62 12.64 107.17 12.68 107.32 12.68C107.49 12.68 107.49 12.61 107.49 12.40C107.49 12.24 107.49 12.18 107.32 12.18L106.25 12.18C106.25 12.18 106.23 12.18 106.23 12.17C106.25 11.87 107.02 9.90 107.37 9.02C107.44 8.83 107.45 8.79 107.66 8.79L110.49 8.79C110.63 8.79 110.63 8.81 110.70 9.03C110.96 9.77 111.68 11.89 111.68 12.17C111.68 12.18 111.66 12.18 111.66 12.18L110.89 12.18C110.67 12.18 110.66 12.19 110.66 12.39C110.66 12.63 110.67 12.68 110.84 12.68C111.16 12.68 112.03 12.64 112.45 12.64C112.87 12.64 113.54 12.68 113.75 12.68C113.89 12.68 113.90 12.61 113.90 12.40C113.90 12.24 113.89 12.18 113.75 12.18L113.26 12.18C113.16 12.18 112.14 9.34 111.58 7.78L109.90 3.07C109.89 3.00 109.82 2.94 109.73 2.94C109.61 2.94 109.51 3.16 109.42 3.35C109.27 3.71 109.03 3.84 108.92 4.13L107.44 7.57C107.25 8.01 105.55 12.18 105.42 12.18L105 12.18C104.78 12.18 104.75 12.19 104.75 12.39ZM107.65 8.33C107.65 8.30 107.67 8.23 107.72 8.13L109.09 4.77C109.13 4.66 109.16 4.61 109.19 4.61C109.20 4.61 109.21 4.63 109.26 4.77L110.42 8.18C110.45 8.25 110.46 8.29 110.46 8.32C110.46 8.36 110.43 8.37 110.33 8.37L107.83 8.37C107.65 8.37 107.65 8.34 107.65 8.33ZM121.45 7.91C121.45 11.31 123.82 12.87 126.41 12.87C128.18 12.87 129.96 11.90 130.00 11.59C130.17 10.29 130.23 9.70 130.23 9.66C130.23 9.56 130.19 9.52 130.02 9.51C129.96 9.51 129.91 9.49 129.86 9.49C129.75 9.49 129.70 9.53 129.67 9.70L129.49 11.33C129.47 11.45 128.37 12.24 126.80 12.24C124.67 12.24 122.96 10.29 122.96 7.94C122.96 5.42 124.39 3.54 126.39 3.54C128.24 3.54 129.58 5.01 129.58 5.17C129.58 5.29 129.53 6.40 129.53 6.45C129.53 6.59 129.57 6.64 129.84 6.64C130.03 6.64 130.10 6.62 130.10 6.44C130.10 5.73 130.16 3.92 130.16 3.67C130.16 3.47 130.05 3.44 129.84 3.44C129.61 3.44 129.58 3.50 129.58 3.67L129.58 4.05C129.58 4.16 129.54 4.16 129.42 4.06C129.14 3.86 128.16 3.04 126.49 3.04C123.65 3.04 121.45 4.96 121.45 7.91ZM138.61 12.39C138.61 12.63 138.63 12.68 138.82 12.68C139.15 12.68 140.04 12.64 140.46 12.64C140.88 12.64 141.83 12.68 142.16 12.68C142.32 12.68 142.34 12.61 142.34 12.40C142.34 12.24 142.31 12.18 142.14 12.18L141.13 12.18C141.04 12.18 141.01 10.12 141.01 8.46C141.01 8.30 141.01 8.30 141.18 8.30L141.44 8.30C141.65 8.30 141.65 8.32 141.72 8.40L144.76 12.00C144.86 12.11 144.93 12.18 144.72 12.18L144.26 12.18C144.07 12.18 144.00 12.19 144.00 12.39C144.00 12.63 144.00 12.68 144.20 12.68C144.52 12.68 145.22 12.64 145.64 12.64C146.06 12.64 146.75 12.68 147.07 12.68C147.24 12.68 147.24 12.61 147.24 12.40C147.24 12.24 147.24 12.18 147.07 12.18L146.85 12.18C146.66 12.18 146.57 12.10 146.44 11.96L142.67 7.62C142.53 7.45 142.51 7.50 142.63 7.36C143.08 6.83 145.61 3.77 145.68 3.77L146.36 3.77C146.58 3.77 146.61 3.75 146.61 3.56C146.61 3.32 146.61 3.26 146.41 3.26C146.22 3.26 145.77 3.30 145.25 3.30C144.72 3.30 144.24 3.26 144.02 3.26C143.84 3.26 143.74 3.28 143.74 3.51C143.74 3.75 143.85 3.77 144.02 3.77L144.58 3.77C144.75 3.77 144.75 3.84 144.63 3.99C144.10 4.66 141.75 7.92 141.46 7.92L141.15 7.92C141.01 7.92 141.01 7.88 141.01 7.69L141.01 5.94C141.01 5.21 141.08 3.77 141.18 3.77L141.95 3.77C142.17 3.77 142.21 3.75 142.21 3.56C142.21 3.32 142.20 3.26 142.00 3.26C141.68 3.26 140.91 3.30 140.49 3.30C139.90 3.30 139.24 3.26 139.02 3.26C138.84 3.26 138.74 3.28 138.74 3.51C138.74 3.75 138.85 3.77 139.02 3.77L139.66 3.77C139.72 3.77 139.75 4.86 139.75 5.78L139.75 9.84C139.75 11.00 139.73 12.18 139.65 12.18L138.91 12.18C138.68 12.18 138.61 12.19 138.61 12.39ZM164.58 8.15C164.58 11.17 166.92 12.80 169.18 12.80C171.96 12.80 173.94 10.89 173.94 8.06C173.94 5.33 172.19 3.11 169.39 3.11C166.78 3.11 164.58 5.10 164.58 8.15ZM165.98 7.77C165.98 5.64 167.27 3.58 169.25 3.58C171.49 3.58 172.56 5.81 172.56 7.94C172.56 10.08 171.46 12.32 169.19 12.32C167.20 12.32 165.98 10.28 165.98 7.77ZM182.04 3.49C182.04 3.72 182.15 3.74 182.32 3.74L182.94 3.74C182.99 3.74 183.06 4.79 183.06 5.71C183.06 5.80 183.12 8.27 183.12 9.83L183.12 11.17C183.12 11.84 183.11 12.18 183.05 12.18L182.46 12.18C182.24 12.18 182.17 12.19 182.17 12.39C182.17 12.63 182.18 12.68 182.38 12.68C182.59 12.68 183.43 12.64 183.85 12.64C184.27 12.64 185.21 12.68 185.53 12.68C185.70 12.68 185.72 12.61 185.72 12.40C185.72 12.24 185.70 12.18 185.53 12.18L184.39 12.18C184.34 12.18 184.35 10.16 184.31 8.33C184.31 8.08 184.30 8.09 184.49 8.09L186.91 8.09C187.61 8.09 187.64 8.19 187.64 8.30L187.64 9.16C187.64 9.28 187.82 9.28 187.94 9.28C188.03 9.28 188.16 9.28 188.16 9.17C188.16 8.99 188.13 8.33 188.13 7.83C188.13 7.32 188.16 6.82 188.16 6.69C188.16 6.58 188.05 6.58 187.92 6.58C187.75 6.58 187.64 6.58 187.64 6.71L187.64 7.45C187.64 7.62 187.19 7.63 186.91 7.63L184.49 7.63C184.28 7.63 184.31 7.66 184.31 7.45C184.30 7.13 184.28 6.15 184.28 5.26C184.28 4.52 184.30 3.71 184.37 3.71C185.77 3.71 187.95 3.75 188.24 3.79C188.24 3.96 188.20 4.82 188.20 4.89C188.20 5.04 188.27 5.10 188.45 5.10C188.65 5.10 188.72 5.08 188.72 4.94C188.72 3.85 188.78 3.36 188.78 3.09C188.78 2.93 188.69 2.90 188.50 2.90C188.37 2.90 188.30 2.90 188.27 3.11C188.26 3.25 188.33 3.25 187.38 3.25C186.77 3.25 184.49 3.29 183.75 3.29C183.26 3.29 182.32 3.25 182.22 3.25C182.10 3.25 182.04 3.30 182.04 3.49ZM206.28 5.01C206.28 5.17 206.46 5.17 206.58 5.17C206.74 5.17 206.78 5.15 206.79 4.97L206.91 3.89C206.92 3.81 207.47 3.75 208.22 3.75L210.21 3.75C210.27 3.75 210.29 4.35 210.29 4.97C210.29 6.43 210.24 12.18 210.11 12.18L209.24 12.18C209.02 12.18 208.98 12.19 208.98 12.39C208.98 12.63 208.99 12.68 209.19 12.68C209.51 12.68 210.49 12.64 210.91 12.64C211.33 12.64 212.27 12.68 212.59 12.68C212.76 12.68 212.79 12.61 212.79 12.40C212.79 12.24 212.76 12.18 212.59 12.18L211.60 12.18C211.57 12.18 211.57 11.76 211.57 11.31C211.57 9.56 211.65 5.96 211.65 5.92C211.67 5.18 211.67 3.75 211.76 3.75L213.37 3.75C214.09 3.75 214.91 3.78 214.91 3.85C214.91 3.99 214.87 4.90 214.87 4.97C214.87 5.12 214.94 5.17 215.12 5.17C215.32 5.17 215.39 5.17 215.39 5.03C215.39 3.93 215.45 3.40 215.45 3.14C215.45 2.94 215.36 2.94 215.17 2.94C215.01 2.94 214.96 2.98 214.94 3.16C214.94 3.23 214.30 3.28 213.46 3.28L208.46 3.28C207.80 3.28 206.99 3.28 206.99 3.21L206.99 3.07C206.99 2.94 206.86 2.94 206.77 2.94C206.54 2.94 206.51 3.00 206.50 3.19C206.44 3.89 206.28 4.97 206.28 5.01ZM223.20 12.39C223.20 12.63 223.20 12.68 223.40 12.68C223.72 12.68 224.66 12.64 225.08 12.64C225.50 12.64 226.32 12.68 226.65 12.68C226.81 12.68 226.81 12.61 226.81 12.40C226.81 12.24 226.81 12.18 226.65 12.18L225.72 12.18C225.64 12.18 225.60 9.93 225.60 8.20C225.60 8.01 225.60 8.01 225.72 8.01L230.96 8.01C231.03 8.01 231.04 8.01 231.04 8.18L231.04 9.91C231.04 11.05 231.03 12.18 230.97 12.18L230.20 12.18C229.98 12.18 229.94 12.19 229.94 12.39C229.94 12.63 229.95 12.68 230.15 12.68C230.47 12.68 231.31 12.64 231.73 12.64C232.15 12.64 232.74 12.68 233.06 12.68C233.23 12.68 233.24 12.61 233.24 12.40C233.24 12.24 233.23 12.18 233.06 12.18L232.32 12.18C232.27 12.18 232.26 9.27 232.26 7.04C232.26 5.40 232.26 3.70 232.30 3.70L232.92 3.70C233.14 3.70 233.18 3.68 233.18 3.49C233.18 3.25 233.17 3.19 232.97 3.19C232.83 3.19 232.20 3.23 231.62 3.23C230.94 3.23 230.34 3.19 230.12 3.19C229.92 3.19 229.89 3.22 229.89 3.44C229.89 3.67 229.96 3.70 230.13 3.70L230.93 3.70C230.99 3.70 231.04 4.79 231.04 5.71L231.04 7.42C231.04 7.59 231.04 7.59 230.87 7.59L225.76 7.59C225.60 7.59 225.60 7.59 225.60 7.38C225.60 6.96 225.58 6.23 225.58 5.53C225.58 4.66 225.60 3.70 225.65 3.70L226.42 3.70C226.65 3.70 226.69 3.68 226.69 3.49C226.69 3.25 226.67 3.19 226.48 3.19C226.16 3.19 225.57 3.23 224.97 3.23C224.38 3.23 223.89 3.19 223.66 3.19C223.48 3.19 223.38 3.21 223.38 3.44C223.38 3.68 223.50 3.70 223.66 3.70L224.28 3.70C224.34 3.70 224.35 5.59 224.35 7.18L224.35 8.61C224.35 10.08 224.34 12.18 224.27 12.18L223.45 12.18C223.23 12.18 223.20 12.19 223.20 12.39ZM241.28 12.39C241.28 12.63 241.30 12.68 241.50 12.68C241.82 12.68 242.79 12.64 243.21 12.64C243.63 12.64 248.14 12.68 248.46 12.68C248.58 12.68 248.74 12.66 248.74 12.49C248.74 12.07 248.78 11.23 248.78 10.53C248.78 10.39 248.63 10.39 248.50 10.39C248.39 10.39 248.26 10.39 248.26 10.51C248.25 11.06 248.25 11.41 248.22 11.76C248.19 12.01 248.19 12.04 248.09 12.04C247.94 12.04 245.31 12.08 243.81 12.08C243.74 12.08 243.70 10.11 243.66 8.26C243.66 8.06 243.70 8.09 243.84 8.09L246.12 8.09C246.82 8.09 246.85 8.20 246.85 8.30L246.85 9.00C246.85 9.14 247.03 9.14 247.14 9.14C247.24 9.14 247.37 9.13 247.37 9.02C247.37 8.83 247.34 8.33 247.34 7.83C247.34 7.32 247.37 6.83 247.37 6.71C247.37 6.59 247.23 6.58 247.13 6.58C247.02 6.58 246.85 6.59 246.85 6.72L246.85 7.45C246.85 7.62 246.40 7.63 246.12 7.63L243.78 7.63C243.67 7.63 243.66 7.63 243.66 7.45C243.64 6.75 243.63 6.06 243.63 5.46C243.63 5.12 243.63 3.71 243.71 3.71C244.94 3.71 247.45 3.75 247.45 3.81C247.45 3.99 247.41 4.83 247.41 4.89C247.41 5.04 247.48 5.10 247.66 5.10C247.86 5.10 247.93 5.08 247.93 4.94C247.93 3.85 247.98 3.36 247.98 3.09C247.98 2.91 247.90 2.90 247.70 2.90C247.51 2.90 247.51 2.95 247.48 3.11C247.46 3.25 247.53 3.25 246.62 3.25C246.01 3.25 243.87 3.29 243.10 3.29C242.61 3.29 241.67 3.25 241.57 3.25C241.44 3.25 241.39 3.30 241.39 3.49C241.39 3.72 241.46 3.74 241.63 3.74L242.28 3.74C242.34 3.74 242.41 4.79 242.41 5.71C242.41 5.80 242.47 8.27 242.47 9.83L242.47 11.17C242.47 11.84 242.44 12.18 242.41 12.18L241.56 12.18C241.33 12.18 241.28 12.21 241.28 12.39ZM266.55 12.39C266.55 12.63 266.56 12.68 266.76 12.68C266.94 12.68 267.32 12.64 267.93 12.64C268.56 12.64 269.12 12.68 269.44 12.68C269.61 12.68 269.61 12.61 269.61 12.40C269.61 12.24 269.61 12.18 269.44 12.18L268.24 12.18C268.20 12.18 268.18 11.54 268.18 10.79C268.18 9.46 268.20 7.48 268.20 5.99C268.20 5.25 268.20 4.84 268.21 4.28C268.21 4.02 268.28 4.14 268.41 4.28L275.30 12.66C275.38 12.75 275.46 12.89 275.58 12.89C275.69 12.89 275.76 12.77 275.76 12.54C275.76 12.39 275.93 6.65 275.94 4.48C275.94 4.06 275.97 3.70 276.00 3.70L276.63 3.70C276.85 3.70 276.91 3.68 276.91 3.49C276.91 3.25 276.91 3.19 276.71 3.19C276.51 3.19 276.08 3.23 275.52 3.23C274.90 3.23 274.11 3.19 274.01 3.19C273.84 3.19 273.84 3.26 273.84 3.47C273.84 3.64 273.84 3.70 274.01 3.70L275.31 3.70C275.32 3.70 275.32 4.33 275.32 4.44C275.32 5.85 275.35 8.33 275.35 9.70L275.35 10.29C275.35 10.57 275.34 10.65 275.11 10.37L269.43 3.39C269.32 3.25 269.29 3.19 269.12 3.19C269.04 3.19 268.66 3.23 268.35 3.23C268.06 3.23 266.98 3.19 266.78 3.19C266.62 3.19 266.59 3.26 266.59 3.47C266.59 3.64 266.62 3.70 266.78 3.70L267.69 3.70C267.69 4.17 267.65 8.53 267.58 10.79C267.55 11.69 267.57 12.18 267.46 12.18L266.81 12.18C266.59 12.18 266.55 12.19 266.55 12.39ZM284.94 12.39C284.94 12.63 284.97 12.68 285.17 12.68C285.49 12.68 286.45 12.64 286.87 12.64C287.29 12.64 291.80 12.68 292.12 12.68C292.25 12.68 292.40 12.66 292.40 12.49C292.40 12.07 292.45 11.23 292.45 10.53C292.45 10.39 292.29 10.39 292.17 10.39C292.05 10.39 291.93 10.39 291.93 10.51C291.91 11.06 291.91 11.41 291.89 11.76C291.86 12.01 291.86 12.04 291.76 12.04C291.61 12.04 288.97 12.08 287.48 12.08C287.41 12.08 287.36 10.11 287.32 8.26C287.32 8.06 287.36 8.09 287.50 8.09L289.79 8.09C290.49 8.09 290.51 8.20 290.51 8.30L290.51 9.00C290.51 9.14 290.70 9.14 290.81 9.14C290.91 9.14 291.03 9.13 291.03 9.02C291.03 8.83 291.00 8.33 291.00 7.83C291.00 7.32 291.03 6.83 291.03 6.71C291.03 6.59 290.89 6.58 290.79 6.58C290.68 6.58 290.51 6.59 290.51 6.72L290.51 7.45C290.51 7.62 290.07 7.63 289.79 7.63L287.45 7.63C287.34 7.63 287.32 7.63 287.32 7.45C287.31 6.75 287.29 6.06 287.29 5.46C287.29 5.12 287.29 3.71 287.38 3.71C288.61 3.71 291.12 3.75 291.12 3.81C291.12 3.99 291.07 4.83 291.07 4.89C291.07 5.04 291.14 5.10 291.33 5.10C291.52 5.10 291.59 5.08 291.59 4.94C291.59 3.85 291.65 3.36 291.65 3.09C291.65 2.91 291.56 2.90 291.37 2.90C291.17 2.90 291.17 2.95 291.14 3.11C291.13 3.25 291.20 3.25 290.29 3.25C289.67 3.25 287.53 3.29 286.76 3.29C286.27 3.29 285.33 3.25 285.24 3.25C285.11 3.25 285.05 3.30 285.05 3.49C285.05 3.72 285.12 3.74 285.29 3.74L285.95 3.74C286.01 3.74 286.08 4.79 286.08 5.71C286.08 5.80 286.13 8.27 286.13 9.83L286.13 11.17C286.13 11.84 286.10 12.18 286.08 12.18L285.22 12.18C285.00 12.18 284.94 12.21 284.94 12.39ZM299.99 3.51C299.99 3.75 300.10 3.77 300.27 3.77L300.78 3.77C300.86 3.77 303.00 10.99 303.03 11.07C303.38 12.14 303.49 12.99 303.80 12.99C304.02 12.99 304.12 12.67 304.40 12.26C304.56 12.05 304.65 12.01 304.79 11.66L306.78 6.45C306.85 6.29 306.88 6.20 306.91 6.20C306.94 6.20 306.96 6.29 307.01 6.45C307.61 8.51 308.28 11.03 308.29 11.07C308.64 12.14 308.76 12.99 309.06 12.99C309.29 12.99 309.39 12.67 309.67 12.26C309.82 12.05 309.92 12.01 310.06 11.66L313.15 4.06C313.25 3.81 313.25 3.77 313.61 3.77C313.85 3.77 313.91 3.71 313.91 3.53C313.91 3.32 313.87 3.26 313.67 3.26C313.53 3.26 313.22 3.30 312.72 3.30C311.98 3.30 311.47 3.26 311.28 3.26C311.09 3.26 311.00 3.28 311.00 3.51C311.00 3.75 311.11 3.77 311.28 3.77L312.19 3.77C312.26 3.77 312.27 3.81 312.27 3.95C312.27 4.63 310.67 8.72 309.96 10.63C309.82 10.99 309.75 11.17 309.71 11.17C309.65 11.17 309.60 10.99 309.47 10.60C309.39 10.30 308.46 7.18 307.93 5.22C307.89 5.05 307.68 4.17 307.68 3.85C307.68 3.81 307.68 3.79 307.69 3.77L308.57 3.77C308.76 3.77 308.85 3.75 308.85 3.56C308.85 3.32 308.81 3.26 308.62 3.26C308.29 3.26 307.36 3.30 306.94 3.30C306.52 3.30 305.61 3.26 305.38 3.26C305.20 3.26 305.10 3.28 305.10 3.51C305.10 3.75 305.21 3.77 305.38 3.77L306.18 3.77C306.22 3.77 306.40 4.27 306.56 4.83C306.61 5.05 306.66 5.15 306.66 5.25C306.66 5.31 306.66 5.38 306.61 5.49L304.61 10.60C304.51 10.82 304.49 10.95 304.44 10.95C304.40 10.95 304.37 10.84 304.29 10.60C304.21 10.32 303.20 7.27 302.60 5.22C302.55 5.08 302.23 3.96 302.22 3.85C302.23 3.77 302.27 3.77 302.32 3.77L303.02 3.77C303.24 3.77 303.31 3.75 303.31 3.56C303.31 3.32 303.27 3.26 303.07 3.26C302.75 3.26 302.04 3.30 301.62 3.30C301.20 3.30 300.50 3.26 300.27 3.26C300.09 3.26 299.99 3.28 299.99 3.51ZM321.52 12.39C321.52 12.63 321.55 12.68 321.75 12.68C322.07 12.68 323.04 12.64 323.46 12.64C323.88 12.64 328.38 12.68 328.71 12.68C328.83 12.68 328.99 12.66 328.99 12.49C328.99 12.07 329.03 11.23 329.03 10.53C329.03 10.39 328.87 10.39 328.75 10.39C328.64 10.39 328.51 10.39 328.51 10.51C328.50 11.06 328.50 11.41 328.47 11.76C328.44 12.01 328.44 12.04 328.34 12.04C328.19 12.04 325.56 12.08 324.06 12.08C323.99 12.08 323.95 10.11 323.90 8.26C323.90 8.06 323.95 8.09 324.09 8.09L326.37 8.09C327.07 8.09 327.10 8.20 327.10 8.30L327.10 9.00C327.10 9.14 327.28 9.14 327.39 9.14C327.49 9.14 327.61 9.13 327.61 9.02C327.61 8.83 327.59 8.33 327.59 7.83C327.59 7.32 327.61 6.83 327.61 6.71C327.61 6.59 327.47 6.58 327.38 6.58C327.26 6.58 327.10 6.59 327.10 6.72L327.10 7.45C327.10 7.62 326.65 7.63 326.37 7.63L324.03 7.63C323.92 7.63 323.90 7.63 323.90 7.45C323.89 6.75 323.88 6.06 323.88 5.46C323.88 5.12 323.88 3.71 323.96 3.71C325.19 3.71 327.70 3.75 327.70 3.81C327.70 3.99 327.66 4.83 327.66 4.89C327.66 5.04 327.73 5.10 327.91 5.10C328.10 5.10 328.17 5.08 328.17 4.94C328.17 3.85 328.23 3.36 328.23 3.09C328.23 2.91 328.15 2.90 327.95 2.90C327.75 2.90 327.75 2.95 327.73 3.11C327.71 3.25 327.78 3.25 326.87 3.25C326.26 3.25 324.11 3.29 323.34 3.29C322.85 3.29 321.92 3.25 321.82 3.25C321.69 3.25 321.64 3.30 321.64 3.49C321.64 3.72 321.71 3.74 321.87 3.74L322.53 3.74C322.59 3.74 322.66 4.79 322.66 5.71C322.66 5.80 322.71 8.27 322.71 9.83L322.71 11.17C322.71 11.84 322.69 12.18 322.66 12.18L321.80 12.18C321.58 12.18 321.52 12.21 321.52 12.39ZM337.20 5.77C337.20 9.07 342.19 8.20 342.19 10.65C342.19 11.59 341.35 12.31 340.37 12.31C339.54 12.31 337.95 11.83 337.92 11.47L337.83 10.15C337.82 9.97 337.75 9.91 337.57 9.91L337.50 9.91C337.29 9.91 337.29 10.00 337.29 10.12C337.29 10.32 337.40 11.66 337.43 12.17C337.44 12.38 338.70 12.85 340.24 12.85C341.81 12.85 343.42 11.87 343.42 10.11C343.42 6.79 338.45 7.87 338.45 5.32C338.45 4.31 339.23 3.56 340.27 3.56C341.29 3.56 342.38 4.58 342.38 4.89C342.38 5.01 342.34 5.73 342.34 5.78C342.34 5.92 342.38 5.99 342.65 5.99C342.89 5.99 342.90 5.94 342.90 5.75C342.90 5.04 342.99 3.68 342.99 3.53C342.99 3.30 342.94 3.29 342.68 3.29C342.45 3.29 342.44 3.32 342.43 3.53C342.43 3.61 342.41 3.78 342.37 3.78C342.31 3.78 342.23 3.74 342.16 3.68C341.36 3.14 340.75 3.08 340.24 3.08C338.72 3.08 337.20 4.17 337.20 5.77ZM350.98 5.01C350.98 5.17 351.16 5.17 351.29 5.17C351.44 5.17 351.48 5.15 351.50 4.97L351.61 3.89C351.62 3.81 352.17 3.75 352.93 3.75L354.91 3.75C354.97 3.75 355.00 4.35 355.00 4.97C355.00 6.43 354.94 12.18 354.82 12.18L353.95 12.18C353.72 12.18 353.68 12.19 353.68 12.39C353.68 12.63 353.70 12.68 353.89 12.68C354.21 12.68 355.19 12.64 355.61 12.64C356.03 12.64 356.97 12.68 357.29 12.68C357.46 12.68 357.49 12.61 357.49 12.40C357.49 12.24 357.46 12.18 357.29 12.18L356.30 12.18C356.27 12.18 356.27 11.76 356.27 11.31C356.27 9.56 356.36 5.96 356.36 5.92C356.37 5.18 356.37 3.75 356.47 3.75L358.08 3.75C358.79 3.75 359.62 3.78 359.62 3.85C359.62 3.99 359.58 4.90 359.58 4.97C359.58 5.12 359.65 5.17 359.83 5.17C360.02 5.17 360.09 5.17 360.09 5.03C360.09 3.93 360.15 3.40 360.15 3.14C360.15 2.94 360.07 2.94 359.87 2.94C359.72 2.94 359.66 2.98 359.65 3.16C359.65 3.23 359.00 3.28 358.16 3.28L353.16 3.28C352.51 3.28 351.69 3.28 351.69 3.21L351.69 3.07C351.69 2.94 351.57 2.94 351.47 2.94C351.25 2.94 351.22 3.00 351.20 3.19C351.15 3.89 350.98 4.97 350.98 5.01ZM377.78 7.91C377.78 11.40 380.14 12.89 382.73 12.89C384.62 12.89 386.62 11.89 386.62 11.58C386.62 11.12 386.64 10.68 386.64 10.33C386.64 9.81 386.65 9.56 386.78 9.56L387.21 9.56C387.35 9.56 387.37 9.39 387.37 9.30C387.37 9.18 387.35 9.06 387.21 9.06C386.99 9.06 386.62 9.10 385.95 9.10C385.50 9.10 384.76 9.07 384.08 9.06C383.94 9.06 383.94 9.24 383.94 9.35C383.94 9.45 383.96 9.56 384.09 9.56L385.31 9.56C385.35 9.56 385.41 9.87 385.41 10.33C385.41 10.82 385.39 11.41 385.36 11.65C385.35 11.76 384.71 12.39 383.12 12.39C380.88 12.39 379.29 10.29 379.29 7.94C379.29 5.42 380.84 3.54 382.84 3.54C384.73 3.54 385.91 4.87 385.91 5.03C385.91 5.15 385.85 6.12 385.85 6.17C385.85 6.31 385.90 6.36 386.16 6.36C386.36 6.36 386.43 6.33 386.43 6.15C386.43 5.43 386.47 3.75 386.47 3.56C386.47 3.36 386.37 3.33 386.16 3.33C385.94 3.33 385.91 3.39 385.91 3.56L385.91 3.91C385.91 3.99 385.87 4.02 385.74 3.92C385.46 3.72 384.47 3.08 382.90 3.08C380.06 3.08 377.78 4.79 377.78 7.91ZM394.98 12.39C394.98 12.63 394.98 12.68 395.18 12.68C395.35 12.68 395.67 12.64 396.24 12.64C396.86 12.64 397.40 12.68 397.56 12.68C397.73 12.68 397.73 12.61 397.73 12.40C397.73 12.24 397.73 12.18 397.56 12.18L396.48 12.18C396.48 12.18 396.47 12.18 396.47 12.17C396.48 11.87 397.25 9.90 397.60 9.02C397.67 8.83 397.68 8.79 397.89 8.79L400.72 8.79C400.86 8.79 400.86 8.81 400.93 9.03C401.20 9.77 401.91 11.89 401.91 12.17C401.91 12.18 401.90 12.18 401.90 12.18L401.13 12.18C400.90 12.18 400.89 12.19 400.89 12.39C400.89 12.63 400.90 12.68 401.07 12.68C401.39 12.68 402.26 12.64 402.68 12.64C403.10 12.64 403.77 12.68 403.98 12.68C404.12 12.68 404.14 12.61 404.14 12.40C404.14 12.24 404.12 12.18 403.98 12.18L403.49 12.18C403.40 12.18 402.37 9.34 401.81 7.78L400.13 3.07C400.12 3.00 400.05 2.94 399.97 2.94C399.84 2.94 399.74 3.16 399.66 3.35C399.50 3.71 399.27 3.84 399.15 4.13L397.67 7.57C397.49 8.01 395.78 12.18 395.65 12.18L395.23 12.18C395.01 12.18 394.98 12.19 394.98 12.39ZM397.88 8.33C397.88 8.30 397.91 8.23 397.95 8.13L399.32 4.77C399.36 4.66 399.39 4.61 399.42 4.61C399.43 4.61 399.45 4.63 399.49 4.77L400.65 8.18C400.68 8.25 400.69 8.29 400.69 8.32C400.69 8.36 400.67 8.37 400.57 8.37L398.06 8.37C397.88 8.37 397.88 8.34 397.88 8.33ZM411.82 12.39C411.82 12.63 411.85 12.68 412.05 12.68C412.29 12.68 412.79 12.64 413.21 12.64C413.63 12.64 414.12 12.68 414.44 12.68C414.61 12.68 414.64 12.61 414.64 12.40C414.64 12.24 414.61 12.18 414.44 12.18L413.48 12.18C413.42 12.18 413.41 11.54 413.41 10.79C413.41 8.96 413.45 6.13 413.52 4.28C413.55 3.88 413.57 3.91 413.71 4.27L416.98 12.32C417.07 12.54 417.14 12.74 417.26 12.74C417.35 12.74 417.42 12.63 417.51 12.45C417.84 11.79 418.03 11.75 418.29 11.09L420.88 4.47C421.01 4.16 421.05 4.02 421.06 4.47C421.09 5.66 421.13 8.47 421.13 9.74C421.13 10.99 421.09 12.18 421.04 12.18L420.41 12.18C420.18 12.18 420.11 12.19 420.11 12.39C420.11 12.63 420.14 12.68 420.34 12.68C420.53 12.68 421.23 12.64 421.83 12.64C422.25 12.64 423.01 12.68 423.33 12.68C423.50 12.68 423.53 12.61 423.53 12.40C423.53 12.22 423.47 12.18 423.30 12.18L422.58 12.18C422.46 12.18 422.37 8.44 422.37 6.03L422.37 4.77C422.37 4.17 422.39 3.77 422.44 3.70L423.09 3.70C423.32 3.70 423.36 3.68 423.36 3.49C423.36 3.25 423.35 3.19 423.15 3.19C422.83 3.19 422.14 3.23 421.72 3.23L421.05 3.23C420.83 3.23 420.80 3.29 420.69 3.58L417.94 10.72C417.86 10.95 417.83 11.02 417.72 10.74L414.78 3.40C414.71 3.22 414.65 3.19 414.51 3.19C414.43 3.19 413.94 3.23 413.63 3.23C413.13 3.23 412.27 3.19 412.08 3.19C411.94 3.19 411.94 3.26 411.94 3.47C411.94 3.64 411.94 3.70 412.08 3.70L412.78 3.70C413.04 3.70 413.04 3.72 413.04 3.84C413.04 4.82 412.83 9.94 412.79 10.79C412.75 11.55 412.75 12.18 412.69 12.18L412.12 12.18C411.89 12.18 411.82 12.19 411.82 12.39ZM431.42 12.39C431.42 12.63 431.45 12.68 431.65 12.68C431.97 12.68 432.94 12.64 433.36 12.64C433.78 12.64 438.28 12.68 438.61 12.68C438.73 12.68 438.89 12.66 438.89 12.49C438.89 12.07 438.93 11.23 438.93 10.53C438.93 10.39 438.77 10.39 438.65 10.39C438.54 10.39 438.41 10.39 438.41 10.51C438.40 11.06 438.40 11.41 438.37 11.76C438.34 12.01 438.34 12.04 438.24 12.04C438.09 12.04 435.46 12.08 433.96 12.08C433.89 12.08 433.85 10.11 433.80 8.26C433.80 8.06 433.85 8.09 433.99 8.09L436.27 8.09C436.97 8.09 437.00 8.20 437.00 8.30L437.00 9.00C437.00 9.14 437.18 9.14 437.29 9.14C437.39 9.14 437.51 9.13 437.51 9.02C437.51 8.83 437.49 8.33 437.49 7.83C437.49 7.32 437.51 6.83 437.51 6.71C437.51 6.59 437.37 6.58 437.28 6.58C437.16 6.58 437.00 6.59 437.00 6.72L437.00 7.45C437.00 7.62 436.55 7.63 436.27 7.63L433.93 7.63C433.82 7.63 433.80 7.63 433.80 7.45C433.79 6.75 433.78 6.06 433.78 5.46C433.78 5.12 433.78 3.71 433.86 3.71C435.09 3.71 437.60 3.75 437.60 3.81C437.60 3.99 437.56 4.83 437.56 4.89C437.56 5.04 437.63 5.10 437.81 5.10C438.00 5.10 438.07 5.08 438.07 4.94C438.07 3.85 438.13 3.36 438.13 3.09C438.13 2.91 438.05 2.90 437.85 2.90C437.65 2.90 437.65 2.95 437.63 3.11C437.61 3.25 437.68 3.25 436.77 3.25C436.16 3.25 434.01 3.29 433.24 3.29C432.75 3.29 431.82 3.25 431.72 3.25C431.59 3.25 431.54 3.30 431.54 3.49C431.54 3.72 431.61 3.74 431.77 3.74L432.43 3.74C432.49 3.74 432.56 4.79 432.56 5.71C432.56 5.80 432.61 8.27 432.61 9.83L432.61 11.17C432.61 11.84 432.59 12.18 432.56 12.18L431.70 12.18C431.48 12.18 431.42 12.21 431.42 12.39ZM447.10 5.77C447.10 9.07 452.09 8.20 452.09 10.65C452.09 11.59 451.25 12.31 450.27 12.31C449.44 12.31 447.85 11.83 447.82 11.47L447.73 10.15C447.72 9.97 447.65 9.91 447.47 9.91L447.40 9.91C447.19 9.91 447.19 10.00 447.19 10.12C447.19 10.32 447.30 11.66 447.33 12.17C447.34 12.38 448.60 12.85 450.14 12.85C451.71 12.85 453.32 11.87 453.32 10.11C453.32 6.79 448.35 7.87 448.35 5.32C448.35 4.31 449.13 3.56 450.17 3.56C451.19 3.56 452.28 4.58 452.28 4.89C452.28 5.01 452.24 5.73 452.24 5.78C452.24 5.92 452.28 5.99 452.55 5.99C452.79 5.99 452.80 5.94 452.80 5.75C452.80 5.04 452.89 3.68 452.89 3.53C452.89 3.30 452.84 3.29 452.58 3.29C452.35 3.29 452.34 3.32 452.33 3.53C452.33 3.61 452.31 3.78 452.27 3.78C452.21 3.78 452.13 3.74 452.06 3.68C451.26 3.14 450.65 3.08 450.14 3.08C448.62 3.08 447.10 4.17 447.10 5.77Z"></path></g></svg>